<svg xmlns="http://www.w3.org/2000/svg" viewBox="0 0 20 20"><defs><style>.cls-1{fill:none;}</style></defs><title>资源 4</title><g id="图层_2" data-name="图层 2"><g id="图层_1-2" data-name="图层 1"><path d="M12.67,7.3A2.67,2.67,0,1,0,10,10,2.68,2.68,0,0,0,12.67,7.3Zm-4.34,0A1.67,1.67,0,1,1,10,9,1.67,1.67,0,0,1,8.33,7.3Z"/><path d="M14.3,13.44a.5.5,0,0,0-.57.82,1.44,1.44,0,0,1,.72,1.05c0,1-1.83,2-4.45,2s-4.45-1-4.45-2a1.3,1.3,0,0,1,.57-.93.52.52,0,0,0,.07-.71.49.49,0,0,0-.7-.07,2.23,2.23,0,0,0-.94,1.71c0,1.68,2.4,3,5.45,3s5.45-1.32,5.45-3A2.33,2.33,0,0,0,14.3,13.44Z"/><path d="M10,15.91s5.61-5.51,5.61-8.61a5.61,5.61,0,0,0-11.22,0C4.39,10.4,10,15.91,10,15.91ZM10,2.69A4.62,4.62,0,0,1,14.61,7.3C14.61,9,12,12.36,10,14.48,8,12.36,5.39,9,5.39,7.3A4.62,4.62,0,0,1,10,2.69Z"/><rect class="cls-1" width="20" height="20"/></g></g></svg>