<?xml version="1.0" standalone="no"?><!DOCTYPE svg PUBLIC "-//W3C//DTD SVG 1.1//EN" "http://www.w3.org/Graphics/SVG/1.1/DTD/svg11.dtd"><svg t="1591595875251" class="icon" viewBox="0 0 1024 1024" version="1.1" xmlns="http://www.w3.org/2000/svg" p-id="3716" xmlns:xlink="http://www.w3.org/1999/xlink" width="200" height="200"><defs><style type="text/css"></style></defs><path d="M768 91.136H256a126.464 126.464 0 0 0-128 124.928v591.872A126.464 126.464 0 0 0 256 932.864h512a126.464 126.464 0 0 0 128-124.928V216.064A126.464 126.464 0 0 0 768 91.136z m76.8 716.8a76.288 76.288 0 0 1-76.8 75.264H256a76.288 76.288 0 0 1-76.8-75.264V216.064A76.288 76.288 0 0 1 256 140.8h512a76.288 76.288 0 0 1 76.8 75.264z" fill="#666666" p-id="3717"></path><path d="M735.232 267.264H288.768a25.6 25.6 0 0 0 0 51.2h446.464a25.6 25.6 0 0 0 0-51.2zM735.232 431.616H288.768a25.6 25.6 0 0 0-25.6 25.6 25.6 25.6 0 0 0 25.6 25.6h446.464a25.6 25.6 0 0 0 25.6-25.6 25.6 25.6 0 0 0-25.6-25.6zM527.36 595.968H288.768a25.6 25.6 0 0 0-25.6 25.6 25.6 25.6 0 0 0 25.6 25.6h238.592a25.6 25.6 0 0 0 25.6-25.6 25.6 25.6 0 0 0-25.6-25.6z" fill="#666666" p-id="3718"></path></svg>