<svg xmlns="http://www.w3.org/2000/svg" viewBox="0 0 20 20"><defs><style>.cls-1{fill:none;}</style></defs><title>资源 1</title><g id="图层_2" data-name="图层 2"><g id="图层_1-2" data-name="图层 1"><path d="M15,2H5A2,2,0,0,0,3,4V16a2,2,0,0,0,2,2H15a2,2,0,0,0,2-2V4A2,2,0,0,0,15,2ZM13.64,3V6.4l-.86-.79L12.11,5l-.68.62-.86.79V3ZM4,16V4A1,1,0,0,1,5,3H6.51V17H5A1,1,0,0,1,4,16Zm12,0a1,1,0,0,1-1,1H7.51V3H9.57V8.68l2.54-2.33,2.53,2.33V3H15a1,1,0,0,1,1,1Z"/><rect class="cls-1" width="20" height="20"/></g></g></svg>