<?xml version="1.0" standalone="no"?><!DOCTYPE svg PUBLIC "-//W3C//DTD SVG 1.1//EN" "http://www.w3.org/Graphics/SVG/1.1/DTD/svg11.dtd"><svg t="1591940653835" class="icon" viewBox="0 0 1024 1024" version="1.1" xmlns="http://www.w3.org/2000/svg" p-id="1300" xmlns:xlink="http://www.w3.org/1999/xlink" width="200" height="200"><defs><style type="text/css"></style></defs><path d="M383.8464 612.7616a244.1216 244.1216 0 0 1-128-211.7632 264.192 264.192 0 0 1 527.36 0 244.1728 244.1728 0 0 1-128 211.8656 124.0576 124.0576 0 0 1-29.2864 58.8288H412.9792a124.8256 124.8256 0 0 1-29.2864-58.7776z m324.2496-188.416a188.416 188.416 0 0 0-188.3648-188.2624c-16.6912 0-25.1392 7.9872-25.1392 23.5008 0 3.8912 8.448 11.7248 25.1392 11.7248a152.064 152.064 0 0 1 150.6816 153.088c0 3.8912 8.448 11.776 25.0368 11.776a18.5344 18.5344 0 0 0 12.6464-11.8272z m-301.4144 305.9712a24.2688 24.2688 0 0 1 25.0368-23.3984h175.872a23.552 23.552 0 1 1 0 47.0016H431.616a24.3712 24.3712 0 0 1-25.1392-23.552z m214.3744 58.9824a116.5312 116.5312 0 0 1-202.4448 0z" fill="#F6BD78" p-id="1301"></path></svg>