<?xml version="1.0" standalone="no"?><!DOCTYPE svg PUBLIC "-//W3C//DTD SVG 1.1//EN" "http://www.w3.org/Graphics/SVG/1.1/DTD/svg11.dtd"><svg class="icon" width="200px" height="200.00px" viewBox="0 0 1024 1024" version="1.1" xmlns="http://www.w3.org/2000/svg"><path d="M512 512m-512 0a512 512 0 1 0 1024 0 512 512 0 1 0-1024 0Z" fill="#F0F0F0" /><path d="M716.8 860.16H307.2a81.92 81.92 0 0 1-81.92-81.92V307.2a81.92 81.92 0 0 1 81.92-81.92h409.6a81.92 81.92 0 0 1 81.92 81.92v471.04a81.92 81.92 0 0 1-81.92 81.92zM307.2 266.24a40.96 40.96 0 0 0-40.96 40.96v471.04a40.96 40.96 0 0 0 40.96 40.96h409.6a40.96 40.96 0 0 0 40.96-40.96V307.2a40.96 40.96 0 0 0-40.96-40.96z" fill="#333333" /><path d="M307.2 245.76h409.6a61.44 61.44 0 0 1 61.44 61.44v245.76a20.48 20.48 0 0 1-20.48 20.48H266.24a20.48 20.48 0 0 1-20.48-20.48V307.2a61.44 61.44 0 0 1 61.44-61.44z" fill="#F6BD78" /><path d="M757.76 593.92H266.24a40.96 40.96 0 0 1-40.96-40.96V307.2a81.92 81.92 0 0 1 81.92-81.92h409.6a81.92 81.92 0 0 1 81.92 81.92v245.76a40.96 40.96 0 0 1-40.96 40.96zM307.2 266.24a40.96 40.96 0 0 0-40.96 40.96v245.76h491.52V307.2a40.96 40.96 0 0 0-40.96-40.96z" fill="#333333" /><path d="M665.6 399.36h-307.2a20.48 20.48 0 0 1 0-40.96h307.2a20.48 20.48 0 0 1 0 40.96z" fill="#333333" /><path d="M542.72 501.76h-184.32a20.48 20.48 0 0 1 0-40.96h184.32a20.48 20.48 0 0 1 0 40.96z" fill="#333333" /><path d="M430.08 184.32h163.84a61.44 61.44 0 0 1 61.44 61.44 61.44 61.44 0 0 1-61.44 61.44h-163.84a61.44 61.44 0 0 1-61.44-61.44 61.44 61.44 0 0 1 61.44-61.44z" fill="#FFFFFF" /><path d="M593.92 307.2h-163.84a61.44 61.44 0 0 1 0-122.88h163.84a61.44 61.44 0 0 1 0 122.88z m-163.84-81.92a20.48 20.48 0 0 0 0 40.96h163.84a20.48 20.48 0 0 0 0-40.96z" fill="#333333" /><path d="M404.2752 686.4896L368.64 710.2464l36.4544 22.3232 181.248-1.024v-50.7904z m239.4112 35.0208v-32.1536a10.8544 10.8544 0 0 0-3.072-6.9632 9.4208 9.4208 0 0 0-6.9632-2.4576h-30.3104l1.4336 51.6096h29.9008a9.8304 9.8304 0 0 0 9.6256-9.8304z" fill="#333333" /></svg>