<?xml version="1.0" standalone="no"?><!DOCTYPE svg PUBLIC "-//W3C//DTD SVG 1.1//EN" "http://www.w3.org/Graphics/SVG/1.1/DTD/svg11.dtd"><svg class="icon" width="200px" height="200.00px" viewBox="0 0 1024 1024" version="1.1" xmlns="http://www.w3.org/2000/svg"><path d="M512 512m-512 0a512 512 0 1 0 1024 0 512 512 0 1 0-1024 0Z" fill="#F0F0F0" /><path d="M225.28 225.28m81.92 0l409.6 0q81.92 0 81.92 81.92l0 471.04q0 81.92-81.92 81.92l-409.6 0q-81.92 0-81.92-81.92l0-471.04q0-81.92 81.92-81.92Z" fill="#FFFFFF" /><path d="M716.8 860.16H307.2a81.92 81.92 0 0 1-81.92-81.92V307.2a81.92 81.92 0 0 1 81.92-81.92h409.6a81.92 81.92 0 0 1 81.92 81.92v471.04a81.92 81.92 0 0 1-81.92 81.92zM307.2 266.24a40.96 40.96 0 0 0-40.96 40.96v471.04a40.96 40.96 0 0 0 40.96 40.96h409.6a40.96 40.96 0 0 0 40.96-40.96V307.2a40.96 40.96 0 0 0-40.96-40.96z" fill="#999999" /><path d="M307.2 245.76h409.6a61.44 61.44 0 0 1 61.44 61.44v245.76a20.48 20.48 0 0 1-20.48 20.48H266.24a20.48 20.48 0 0 1-20.48-20.48V307.2a61.44 61.44 0 0 1 61.44-61.44z" fill="#D1D1D1" /><path d="M757.76 593.92H266.24a40.96 40.96 0 0 1-40.96-40.96V307.2a81.92 81.92 0 0 1 81.92-81.92h409.6a81.92 81.92 0 0 1 81.92 81.92v245.76a40.96 40.96 0 0 1-40.96 40.96zM307.2 266.24a40.96 40.96 0 0 0-40.96 40.96v245.76h491.52V307.2a40.96 40.96 0 0 0-40.96-40.96z" fill="#999999" /><path d="M488.2432 790.3232a36.864 36.864 0 0 1-27.2384-12.0832l-65.536-65.9456a21.9136 21.9136 0 0 1 0-30.72 20.48 20.48 0 0 1 30.5152 0l61.44 62.6688 124.7232-124.3136a21.7088 21.7088 0 0 1 30.5152 0 21.9136 21.9136 0 0 1 0 30.72L514.4576 778.24a37.4784 37.4784 0 0 1-26.2144 12.0832z" fill="#999999" /><path d="M665.6 399.36h-307.2a20.48 20.48 0 0 1 0-40.96h307.2a20.48 20.48 0 0 1 0 40.96z" fill="#999999" /><path d="M542.72 501.76h-184.32a20.48 20.48 0 0 1 0-40.96h184.32a20.48 20.48 0 0 1 0 40.96z" fill="#999999" /><path d="M430.08 184.32h163.84a61.44 61.44 0 0 1 61.44 61.44 61.44 61.44 0 0 1-61.44 61.44h-163.84a61.44 61.44 0 0 1-61.44-61.44 61.44 61.44 0 0 1 61.44-61.44z" fill="#FFFFFF" /><path d="M593.92 307.2h-163.84a61.44 61.44 0 0 1 0-122.88h163.84a61.44 61.44 0 0 1 0 122.88z m-163.84-81.92a20.48 20.48 0 0 0 0 40.96h163.84a20.48 20.48 0 0 0 0-40.96z" fill="#999999" /></svg>