<?xml version="1.0" standalone="no"?><!DOCTYPE svg PUBLIC "-//W3C//DTD SVG 1.1//EN" "http://www.w3.org/Graphics/SVG/1.1/DTD/svg11.dtd"><svg class="icon" width="200px" height="200.00px" viewBox="0 0 1024 1024" version="1.1" xmlns="http://www.w3.org/2000/svg"><path d="M512 512m-512 0a512 512 0 1 0 1024 0 512 512 0 1 0-1024 0Z" fill="#F0F0F0" /><path d="M614.4 757.76H204.8a40.96 40.96 0 0 1-40.96-40.96V307.2a81.92 81.92 0 0 1 81.92-81.92h327.68a81.92 81.92 0 0 1 81.92 81.92v409.6a40.96 40.96 0 0 1-40.96 40.96zM245.76 266.24a40.96 40.96 0 0 0-40.96 40.96v409.6h409.6V307.2a40.96 40.96 0 0 0-40.96-40.96z" fill="#333333" /><path d="M245.76 245.76h327.68a61.44 61.44 0 0 1 61.44 61.44v245.76a20.48 20.48 0 0 1-20.48 20.48H204.8a20.48 20.48 0 0 1-20.48-20.48V307.2a61.44 61.44 0 0 1 61.44-61.44z" fill="#F6BD77" /><path d="M614.4 593.92H204.8a40.96 40.96 0 0 1-40.96-40.96V307.2a81.92 81.92 0 0 1 81.92-81.92h327.68a81.92 81.92 0 0 1 81.92 81.92v245.76a40.96 40.96 0 0 1-40.96 40.96zM245.76 266.24a40.96 40.96 0 0 0-40.96 40.96v245.76h409.6V307.2a40.96 40.96 0 0 0-40.96-40.96z" fill="#333333" /><path d="M880.64 757.76H655.36a40.96 40.96 0 0 1-40.96-40.96V450.56a40.96 40.96 0 0 1 40.96-40.96h184.32a81.92 81.92 0 0 1 81.92 81.92v225.28a40.96 40.96 0 0 1-40.96 40.96zM655.36 450.56v266.24h225.28V491.52a40.96 40.96 0 0 0-40.96-40.96z" fill="#333333" /><path d="M778.24 430.08h61.44a61.44 61.44 0 0 1 61.44 61.44v81.92a20.48 20.48 0 0 1-20.48 20.48h-61.44a61.44 61.44 0 0 1-61.44-61.44v-81.92a20.48 20.48 0 0 1 20.48-20.48z" fill="#F6BD77" /><path d="M880.64 614.4h-61.44a81.92 81.92 0 0 1-81.92-81.92v-81.92a40.96 40.96 0 0 1 40.96-40.96h61.44a81.92 81.92 0 0 1 81.92 81.92v81.92a40.96 40.96 0 0 1-40.96 40.96z m-102.4-163.84v81.92a40.96 40.96 0 0 0 40.96 40.96h61.44v-81.92a40.96 40.96 0 0 0-40.96-40.96z" fill="#333333" /><path d="M348.16 737.28m-81.92 0a81.92 81.92 0 1 0 163.84 0 81.92 81.92 0 1 0-163.84 0Z" fill="#FFFFFF" /><path d="M348.16 819.2a81.92 81.92 0 1 1 81.92-81.92 81.92 81.92 0 0 1-81.92 81.92z m0-122.88a40.96 40.96 0 1 0 40.96 40.96 40.96 40.96 0 0 0-40.96-40.96z" fill="#333333" /><path d="M778.24 737.28m-81.92 0a81.92 81.92 0 1 0 163.84 0 81.92 81.92 0 1 0-163.84 0Z" fill="#FFFFFF" /><path d="M778.24 819.2a81.92 81.92 0 1 1 81.92-81.92 81.92 81.92 0 0 1-81.92 81.92z m0-122.88a40.96 40.96 0 1 0 40.96 40.96 40.96 40.96 0 0 0-40.96-40.96z" fill="#333333" /></svg>