<svg xmlns="http://www.w3.org/2000/svg" viewBox="0 0 20 20"><defs><style>.cls-1{fill:none;}</style></defs><title>资源 3</title><g id="图层_2" data-name="图层 2"><g id="图层_1-2" data-name="图层 1"><path d="M14.58,11a.5.5,0,0,0,.67-.22.49.49,0,0,0-.22-.67,8.56,8.56,0,0,0-2.61-.83,4,4,0,1,0-3.17.08,8.77,8.77,0,0,0-6.94,8.57.5.5,0,1,0,1,0,7.78,7.78,0,0,1,7.76-7.77A7.6,7.6,0,0,1,14.58,11ZM7.73,5.61a3,3,0,1,1,3,3A3,3,0,0,1,7.73,5.61Z"/><path d="M17.19,17.41H10.75a.5.5,0,0,0-.5.5.5.5,0,0,0,.5.5h6.44a.5.5,0,0,0,.5-.5A.5.5,0,0,0,17.19,17.41Z"/><path d="M17.19,15.18H10.75a.5.5,0,0,0-.5.5.5.5,0,0,0,.5.5h6.44a.5.5,0,0,0,.5-.5A.5.5,0,0,0,17.19,15.18Z"/><path d="M10.25,13.27a.5.5,0,0,0,.5.5h6.44a.5.5,0,0,0,.5-.5.5.5,0,0,0-.5-.5H10.75A.5.5,0,0,0,10.25,13.27Z"/><rect class="cls-1" width="20" height="20"/></g></g></svg>