<?xml version="1.0" standalone="no"?><!DOCTYPE svg PUBLIC "-//W3C//DTD SVG 1.1//EN" "http://www.w3.org/Graphics/SVG/1.1/DTD/svg11.dtd"><svg class="icon" width="200px" height="200.00px" viewBox="0 0 1024 1024" version="1.1" xmlns="http://www.w3.org/2000/svg"><path d="M512 512m-512 0a512 512 0 1 0 1024 0 512 512 0 1 0-1024 0Z" fill="#F0F0F0" /><path d="M757.76 839.68H286.72a81.92 81.92 0 0 1-81.92-81.92V327.68a40.96 40.96 0 0 1 40.96-40.96h512a81.92 81.92 0 0 1 81.92 81.92v389.12a81.92 81.92 0 0 1-81.92 81.92zM245.76 327.68v430.08a40.96 40.96 0 0 0 40.96 40.96h471.04a40.96 40.96 0 0 0 40.96-40.96V368.64a40.96 40.96 0 0 0-40.96-40.96z" fill="#333333" /><path d="M645.12 491.52h160.9728a13.1072 13.1072 0 0 1 13.1072 13.1072v158.1056a13.1072 13.1072 0 0 1-13.1072 13.1072H645.12a91.9552 91.9552 0 0 1-92.16-92.16 91.9552 91.9552 0 0 1 92.16-92.16z" fill="#F6BD78" /><path d="M806.0928 696.32H645.12a112.64 112.64 0 0 1 0-225.28h160.9728A33.792 33.792 0 0 1 839.68 504.6272v158.1056A33.792 33.792 0 0 1 806.0928 696.32z m-160.9728-184.32a71.68 71.68 0 0 0 0 143.36H798.72v-143.36z" fill="#333333" /><path d="M266.24 204.8h286.72a61.44 61.44 0 0 1 61.44 61.44v20.48a20.48 20.48 0 0 1-20.48 20.48H225.28a20.48 20.48 0 0 1-20.48-20.48v-20.48a61.44 61.44 0 0 1 61.44-61.44z" fill="#F6BD78" /><path d="M614.4 327.68H245.76a40.96 40.96 0 0 1-40.96-40.96v-20.48a81.92 81.92 0 0 1 81.92-81.92h286.72a81.92 81.92 0 0 1 81.92 81.92v20.48a40.96 40.96 0 0 1-40.96 40.96z m-327.68-102.4a40.96 40.96 0 0 0-40.96 40.96v20.48h368.64v-20.48a40.96 40.96 0 0 0-40.96-40.96z" fill="#333333" /><path d="M645.12 583.68m-30.72 0a30.72 30.72 0 1 0 61.44 0 30.72 30.72 0 1 0-61.44 0Z" fill="#333333" /></svg>