<?xml version="1.0" standalone="no"?><!DOCTYPE svg PUBLIC "-//W3C//DTD SVG 1.1//EN" "http://www.w3.org/Graphics/SVG/1.1/DTD/svg11.dtd"><svg class="icon" width="200px" height="200.00px" viewBox="0 0 1024 1024" version="1.1" xmlns="http://www.w3.org/2000/svg"><path d="M512 512m-512 0a512 512 0 1 0 1024 0 512 512 0 1 0-1024 0Z" fill="#F0F0F0" /><path d="M798.72 819.2H225.28a81.92 81.92 0 0 1-81.92-81.92V286.72a81.92 81.92 0 0 1 81.92-81.92h573.44a81.92 81.92 0 0 1 81.92 81.92v450.56a81.92 81.92 0 0 1-81.92 81.92zM225.28 245.76a40.96 40.96 0 0 0-40.96 40.96v450.56a40.96 40.96 0 0 0 40.96 40.96h573.44a40.96 40.96 0 0 0 40.96-40.96V286.72a40.96 40.96 0 0 0-40.96-40.96z" fill="#333333" /><path d="M225.28 225.28h573.44a61.44 61.44 0 0 1 61.44 61.44v122.88a20.48 20.48 0 0 1-20.48 20.48H184.32a20.48 20.48 0 0 1-20.48-20.48v-122.88a61.44 61.44 0 0 1 61.44-61.44z" fill="#F6BD77" /><path d="M839.68 450.56H184.32a40.96 40.96 0 0 1-40.96-40.96v-122.88a81.92 81.92 0 0 1 81.92-81.92h573.44a81.92 81.92 0 0 1 81.92 81.92v122.88a40.96 40.96 0 0 1-40.96 40.96zM225.28 245.76a40.96 40.96 0 0 0-40.96 40.96v122.88h655.36v-122.88a40.96 40.96 0 0 0-40.96-40.96z" fill="#333333" /><path d="M430.08 508.1088V225.28h184.32v279.9616l-72.9088-69.4272-13.5168-12.9024-14.1312 12.288z" fill="#FFFFFF" /><path d="M450.56 245.76v217.2928l49.9712-43.4176 28.0576-24.3712 27.0336 25.6L593.92 457.3184V245.76h-143.36m-40.96-40.96h225.28v348.16l-107.52-102.4L409.6 552.96z" fill="#333333" /></svg>